<svg width="1440" height="402" viewBox="0 0 1440 402" fill="none" xmlns="http://www.w3.org/2000/svg">
<rect width="1440" height="402" fill="#EAF0F5"/>
<circle cx="1205.5" cy="11.5" r="1.5" fill="#5E8EB0"/>
<circle cx="1218.7" cy="11.5" r="1.5" fill="#5E8EB0"/>
<circle cx="1231.91" cy="11.5" r="1.5" fill="#5E8EB0"/>
<circle cx="1245.11" cy="11.5" r="1.5" fill="#5E8EB0"/>
<circle cx="1258.32" cy="11.5" r="1.5" fill="#5E8EB0"/>
<circle cx="1271.52" cy="11.5" r="1.5" fill="#5E8EB0"/>
<circle cx="1284.72" cy="11.5" r="1.5" fill="#5E8EB0"/>
<circle cx="1297.93" cy="11.5" r="1.5" fill="#5E8EB0"/>
<circle cx="1311.13" cy="11.5" r="1.5" fill="#5E8EB0"/>
<circle cx="1324.33" cy="11.5" r="1.5" fill="#5E8EB0"/>
<circle cx="1337.54" cy="11.5" r="1.5" fill="#5E8EB0"/>
<circle cx="1205.5" cy="26.0243" r="1.5" fill="#5E8EB0"/>
<circle cx="1218.7" cy="26.0243" r="1.5" fill="#5E8EB0"/>
<circle cx="1231.91" cy="26.0243" r="1.5" fill="#5E8EB0"/>
<circle cx="1245.11" cy="26.0243" r="1.5" fill="#5E8EB0"/>
<circle cx="1258.32" cy="26.0243" r="1.5" fill="#5E8EB0"/>
<circle cx="1271.52" cy="26.0243" r="1.5" fill="#5E8EB0"/>
<circle cx="1284.72" cy="26.0243" r="1.5" fill="#5E8EB0"/>
<circle cx="1297.93" cy="26.0243" r="1.5" fill="#5E8EB0"/>
<circle cx="1311.13" cy="26.0243" r="1.5" fill="#5E8EB0"/>
<circle cx="1324.33" cy="26.0243" r="1.5" fill="#5E8EB0"/>
<circle cx="1337.54" cy="26.0243" r="1.5" fill="#5E8EB0"/>
<circle cx="1205.5" cy="40.5486" r="1.5" fill="#5E8EB0"/>
<circle cx="1218.7" cy="40.5486" r="1.5" fill="#5E8EB0"/>
<circle cx="1231.91" cy="40.5486" r="1.5" fill="#5E8EB0"/>
<circle cx="1245.11" cy="40.5486" r="1.5" fill="#5E8EB0"/>
<circle cx="1258.32" cy="40.5486" r="1.5" fill="#5E8EB0"/>
<circle cx="1271.52" cy="40.5486" r="1.5" fill="#5E8EB0"/>
<circle cx="1284.72" cy="40.5486" r="1.5" fill="#5E8EB0"/>
<circle cx="1297.93" cy="40.5486" r="1.5" fill="#5E8EB0"/>
<circle cx="1311.13" cy="40.5486" r="1.5" fill="#5E8EB0"/>
<circle cx="1324.33" cy="40.5486" r="1.5" fill="#5E8EB0"/>
<circle cx="1337.54" cy="40.5486" r="1.5" fill="#5E8EB0"/>
<circle cx="1205.5" cy="55.0728" r="1.5" fill="#5E8EB0"/>
<circle cx="1218.7" cy="55.0728" r="1.5" fill="#5E8EB0"/>
<circle cx="1231.91" cy="55.0728" r="1.5" fill="#5E8EB0"/>
<circle cx="1245.11" cy="55.0728" r="1.5" fill="#5E8EB0"/>
<circle cx="1258.32" cy="55.0728" r="1.5" fill="#5E8EB0"/>
<circle cx="1271.52" cy="55.0728" r="1.5" fill="#5E8EB0"/>
<circle cx="1284.72" cy="55.0728" r="1.5" fill="#5E8EB0"/>
<circle cx="1297.93" cy="55.0728" r="1.5" fill="#5E8EB0"/>
<circle cx="1311.13" cy="55.0728" r="1.5" fill="#5E8EB0"/>
<circle cx="1324.33" cy="55.0728" r="1.5" fill="#5E8EB0"/>
<circle cx="1337.54" cy="55.0728" r="1.5" fill="#5E8EB0"/>
<circle cx="1205.5" cy="69.597" r="1.5" fill="#5E8EB0"/>
<circle cx="1218.7" cy="69.597" r="1.5" fill="#5E8EB0"/>
<circle cx="1231.91" cy="69.597" r="1.5" fill="#5E8EB0"/>
<circle cx="1245.11" cy="69.597" r="1.5" fill="#5E8EB0"/>
<circle cx="1258.32" cy="69.597" r="1.5" fill="#5E8EB0"/>
<circle cx="1271.52" cy="69.597" r="1.5" fill="#5E8EB0"/>
<circle cx="1284.72" cy="69.597" r="1.5" fill="#5E8EB0"/>
<circle cx="1297.93" cy="69.597" r="1.5" fill="#5E8EB0"/>
<circle cx="1311.13" cy="69.597" r="1.5" fill="#5E8EB0"/>
<circle cx="1324.33" cy="69.597" r="1.5" fill="#5E8EB0"/>
<circle cx="1337.54" cy="69.597" r="1.5" fill="#5E8EB0"/>
<circle cx="1205.5" cy="84.1213" r="1.5" fill="#5E8EB0"/>
<circle cx="1218.7" cy="84.1213" r="1.5" fill="#5E8EB0"/>
<circle cx="1231.91" cy="84.1213" r="1.5" fill="#5E8EB0"/>
<circle cx="1245.11" cy="84.1213" r="1.5" fill="#5E8EB0"/>
<circle cx="1258.32" cy="84.1213" r="1.5" fill="#5E8EB0"/>
<circle cx="1271.52" cy="84.1213" r="1.5" fill="#5E8EB0"/>
<circle cx="1284.72" cy="84.1213" r="1.5" fill="#5E8EB0"/>
<circle cx="1297.93" cy="84.1213" r="1.5" fill="#5E8EB0"/>
<circle cx="1311.13" cy="84.1213" r="1.5" fill="#5E8EB0"/>
<circle cx="1324.33" cy="84.1213" r="1.5" fill="#5E8EB0"/>
<circle cx="1337.54" cy="84.1213" r="1.5" fill="#5E8EB0"/>
<circle cx="1205.5" cy="98.6456" r="1.5" fill="#5E8EB0"/>
<circle cx="1218.7" cy="98.6456" r="1.5" fill="#5E8EB0"/>
<circle cx="1231.91" cy="98.6456" r="1.5" fill="#5E8EB0"/>
<circle cx="1245.11" cy="98.6456" r="1.5" fill="#5E8EB0"/>
<circle cx="1258.32" cy="98.6456" r="1.5" fill="#5E8EB0"/>
<circle cx="1271.52" cy="98.6456" r="1.5" fill="#5E8EB0"/>
<circle cx="1284.72" cy="98.6456" r="1.5" fill="#5E8EB0"/>
<circle cx="1297.93" cy="98.6456" r="1.5" fill="#5E8EB0"/>
<circle cx="1311.13" cy="98.6456" r="1.5" fill="#5E8EB0"/>
<circle cx="1324.33" cy="98.6456" r="1.5" fill="#5E8EB0"/>
<circle cx="1337.54" cy="98.6456" r="1.5" fill="#5E8EB0"/>
<circle cx="1205.5" cy="113.17" r="1.5" fill="#5E8EB0"/>
<circle cx="1218.7" cy="113.17" r="1.5" fill="#5E8EB0"/>
<circle cx="1231.91" cy="113.17" r="1.5" fill="#5E8EB0"/>
<circle cx="1245.11" cy="113.17" r="1.5" fill="#5E8EB0"/>
<circle cx="1258.32" cy="113.17" r="1.5" fill="#5E8EB0"/>
<circle cx="1271.52" cy="113.17" r="1.5" fill="#5E8EB0"/>
<circle cx="1284.72" cy="113.17" r="1.5" fill="#5E8EB0"/>
<circle cx="1297.93" cy="113.17" r="1.5" fill="#5E8EB0"/>
<circle cx="1311.13" cy="113.17" r="1.5" fill="#5E8EB0"/>
<circle cx="1324.33" cy="113.17" r="1.5" fill="#5E8EB0"/>
<circle cx="1337.54" cy="113.17" r="1.5" fill="#5E8EB0"/>
<circle cx="1205.5" cy="127.694" r="1.5" fill="#5E8EB0"/>
<circle cx="1218.7" cy="127.694" r="1.5" fill="#5E8EB0"/>
<circle cx="1231.91" cy="127.694" r="1.5" fill="#5E8EB0"/>
<circle cx="1245.11" cy="127.694" r="1.5" fill="#5E8EB0"/>
<circle cx="1258.32" cy="127.694" r="1.5" fill="#5E8EB0"/>
<circle cx="1271.52" cy="127.694" r="1.5" fill="#5E8EB0"/>
<circle cx="1284.72" cy="127.694" r="1.5" fill="#5E8EB0"/>
<circle cx="1297.93" cy="127.694" r="1.5" fill="#5E8EB0"/>
<circle cx="1311.13" cy="127.694" r="1.5" fill="#5E8EB0"/>
<circle cx="1324.33" cy="127.694" r="1.5" fill="#5E8EB0"/>
<circle cx="1337.54" cy="127.694" r="1.5" fill="#5E8EB0"/>
<circle cx="1205.5" cy="142.219" r="1.5" fill="#5E8EB0"/>
<circle cx="1218.7" cy="142.219" r="1.5" fill="#5E8EB0"/>
<circle cx="1231.91" cy="142.219" r="1.5" fill="#5E8EB0"/>
<circle cx="1245.11" cy="142.219" r="1.5" fill="#5E8EB0"/>
<circle cx="1258.32" cy="142.219" r="1.5" fill="#5E8EB0"/>
<circle cx="1271.52" cy="142.219" r="1.5" fill="#5E8EB0"/>
<circle cx="1284.72" cy="142.219" r="1.5" fill="#5E8EB0"/>
<circle cx="1297.93" cy="142.219" r="1.5" fill="#5E8EB0"/>
<circle cx="1311.13" cy="142.219" r="1.5" fill="#5E8EB0"/>
<circle cx="1324.33" cy="142.219" r="1.5" fill="#5E8EB0"/>
<circle cx="1337.54" cy="142.219" r="1.5" fill="#5E8EB0"/>
<circle cx="449.5" cy="265.5" r="1.5" fill="#5E8EB0"/>
<circle cx="462.704" cy="265.5" r="1.5" fill="#5E8EB0"/>
<circle cx="475.908" cy="265.5" r="1.5" fill="#5E8EB0"/>
<circle cx="489.111" cy="265.5" r="1.5" fill="#5E8EB0"/>
<circle cx="502.315" cy="265.5" r="1.5" fill="#5E8EB0"/>
<circle cx="515.52" cy="265.5" r="1.5" fill="#5E8EB0"/>
<circle cx="528.724" cy="265.5" r="1.5" fill="#5E8EB0"/>
<circle cx="541.927" cy="265.5" r="1.5" fill="#5E8EB0"/>
<circle cx="555.131" cy="265.5" r="1.5" fill="#5E8EB0"/>
<circle cx="568.335" cy="265.5" r="1.5" fill="#5E8EB0"/>
<circle cx="581.539" cy="265.5" r="1.5" fill="#5E8EB0"/>
<circle cx="449.5" cy="280.024" r="1.5" fill="#5E8EB0"/>
<circle cx="462.704" cy="280.024" r="1.5" fill="#5E8EB0"/>
<circle cx="475.908" cy="280.024" r="1.5" fill="#5E8EB0"/>
<circle cx="489.111" cy="280.024" r="1.5" fill="#5E8EB0"/>
<circle cx="502.315" cy="280.024" r="1.5" fill="#5E8EB0"/>
<circle cx="515.52" cy="280.024" r="1.5" fill="#5E8EB0"/>
<circle cx="528.724" cy="280.024" r="1.5" fill="#5E8EB0"/>
<circle cx="541.927" cy="280.024" r="1.5" fill="#5E8EB0"/>
<circle cx="555.131" cy="280.024" r="1.5" fill="#5E8EB0"/>
<circle cx="568.335" cy="280.024" r="1.5" fill="#5E8EB0"/>
<circle cx="581.539" cy="280.024" r="1.5" fill="#5E8EB0"/>
<circle cx="449.5" cy="294.549" r="1.5" fill="#5E8EB0"/>
<circle cx="462.704" cy="294.549" r="1.5" fill="#5E8EB0"/>
<circle cx="475.908" cy="294.549" r="1.5" fill="#5E8EB0"/>
<circle cx="489.111" cy="294.549" r="1.5" fill="#5E8EB0"/>
<circle cx="502.315" cy="294.549" r="1.5" fill="#5E8EB0"/>
<circle cx="515.52" cy="294.549" r="1.5" fill="#5E8EB0"/>
<circle cx="528.724" cy="294.549" r="1.5" fill="#5E8EB0"/>
<circle cx="541.927" cy="294.549" r="1.5" fill="#5E8EB0"/>
<circle cx="555.131" cy="294.549" r="1.5" fill="#5E8EB0"/>
<circle cx="568.335" cy="294.549" r="1.5" fill="#5E8EB0"/>
<circle cx="581.539" cy="294.549" r="1.5" fill="#5E8EB0"/>
<circle cx="449.5" cy="309.073" r="1.5" fill="#5E8EB0"/>
<circle cx="462.704" cy="309.073" r="1.5" fill="#5E8EB0"/>
<circle cx="475.908" cy="309.073" r="1.5" fill="#5E8EB0"/>
<circle cx="489.111" cy="309.073" r="1.5" fill="#5E8EB0"/>
<circle cx="502.315" cy="309.073" r="1.5" fill="#5E8EB0"/>
<circle cx="515.52" cy="309.073" r="1.5" fill="#5E8EB0"/>
<circle cx="528.724" cy="309.073" r="1.5" fill="#5E8EB0"/>
<circle cx="541.927" cy="309.073" r="1.5" fill="#5E8EB0"/>
<circle cx="555.131" cy="309.073" r="1.5" fill="#5E8EB0"/>
<circle cx="568.335" cy="309.073" r="1.5" fill="#5E8EB0"/>
<circle cx="581.539" cy="309.073" r="1.5" fill="#5E8EB0"/>
<circle cx="449.5" cy="323.597" r="1.5" fill="#5E8EB0"/>
<circle cx="462.704" cy="323.597" r="1.5" fill="#5E8EB0"/>
<circle cx="475.908" cy="323.597" r="1.5" fill="#5E8EB0"/>
<circle cx="489.111" cy="323.597" r="1.5" fill="#5E8EB0"/>
<circle cx="502.315" cy="323.597" r="1.5" fill="#5E8EB0"/>
<circle cx="515.52" cy="323.597" r="1.5" fill="#5E8EB0"/>
<circle cx="528.724" cy="323.597" r="1.5" fill="#5E8EB0"/>
<circle cx="541.927" cy="323.597" r="1.5" fill="#5E8EB0"/>
<circle cx="555.131" cy="323.597" r="1.5" fill="#5E8EB0"/>
<circle cx="568.335" cy="323.597" r="1.5" fill="#5E8EB0"/>
<circle cx="581.539" cy="323.597" r="1.5" fill="#5E8EB0"/>
<circle cx="449.5" cy="338.121" r="1.5" fill="#5E8EB0"/>
<circle cx="462.704" cy="338.121" r="1.5" fill="#5E8EB0"/>
<circle cx="475.908" cy="338.121" r="1.5" fill="#5E8EB0"/>
<circle cx="489.111" cy="338.121" r="1.5" fill="#5E8EB0"/>
<circle cx="502.315" cy="338.121" r="1.5" fill="#5E8EB0"/>
<circle cx="515.52" cy="338.121" r="1.5" fill="#5E8EB0"/>
<circle cx="528.724" cy="338.121" r="1.5" fill="#5E8EB0"/>
<circle cx="541.927" cy="338.121" r="1.5" fill="#5E8EB0"/>
<circle cx="555.131" cy="338.121" r="1.5" fill="#5E8EB0"/>
<circle cx="568.335" cy="338.121" r="1.5" fill="#5E8EB0"/>
<circle cx="581.539" cy="338.121" r="1.5" fill="#5E8EB0"/>
<circle cx="449.5" cy="352.646" r="1.5" fill="#5E8EB0"/>
<circle cx="462.704" cy="352.646" r="1.5" fill="#5E8EB0"/>
<circle cx="475.908" cy="352.646" r="1.5" fill="#5E8EB0"/>
<circle cx="489.111" cy="352.646" r="1.5" fill="#5E8EB0"/>
<circle cx="502.315" cy="352.646" r="1.5" fill="#5E8EB0"/>
<circle cx="515.52" cy="352.646" r="1.5" fill="#5E8EB0"/>
<circle cx="528.724" cy="352.646" r="1.5" fill="#5E8EB0"/>
<circle cx="541.927" cy="352.646" r="1.5" fill="#5E8EB0"/>
<circle cx="555.131" cy="352.646" r="1.5" fill="#5E8EB0"/>
<circle cx="568.335" cy="352.646" r="1.5" fill="#5E8EB0"/>
<circle cx="581.539" cy="352.646" r="1.5" fill="#5E8EB0"/>
<circle cx="449.5" cy="367.17" r="1.5" fill="#5E8EB0"/>
<circle cx="462.704" cy="367.17" r="1.5" fill="#5E8EB0"/>
<circle cx="475.908" cy="367.17" r="1.5" fill="#5E8EB0"/>
<circle cx="489.111" cy="367.17" r="1.5" fill="#5E8EB0"/>
<circle cx="502.315" cy="367.17" r="1.5" fill="#5E8EB0"/>
<circle cx="515.52" cy="367.17" r="1.5" fill="#5E8EB0"/>
<circle cx="528.724" cy="367.17" r="1.5" fill="#5E8EB0"/>
<circle cx="541.927" cy="367.17" r="1.5" fill="#5E8EB0"/>
<circle cx="555.131" cy="367.17" r="1.5" fill="#5E8EB0"/>
<circle cx="568.335" cy="367.17" r="1.5" fill="#5E8EB0"/>
<circle cx="581.539" cy="367.17" r="1.5" fill="#5E8EB0"/>
<circle cx="449.5" cy="381.694" r="1.5" fill="#5E8EB0"/>
<circle cx="462.704" cy="381.694" r="1.5" fill="#5E8EB0"/>
<circle cx="475.908" cy="381.694" r="1.5" fill="#5E8EB0"/>
<circle cx="489.111" cy="381.694" r="1.5" fill="#5E8EB0"/>
<circle cx="502.315" cy="381.694" r="1.5" fill="#5E8EB0"/>
<circle cx="515.52" cy="381.694" r="1.5" fill="#5E8EB0"/>
<circle cx="528.724" cy="381.694" r="1.5" fill="#5E8EB0"/>
<circle cx="541.927" cy="381.694" r="1.5" fill="#5E8EB0"/>
<circle cx="555.131" cy="381.694" r="1.5" fill="#5E8EB0"/>
<circle cx="568.335" cy="381.694" r="1.5" fill="#5E8EB0"/>
<circle cx="581.539" cy="381.694" r="1.5" fill="#5E8EB0"/>
<circle cx="449.5" cy="396.219" r="1.5" fill="#5E8EB0"/>
<circle cx="462.704" cy="396.219" r="1.5" fill="#5E8EB0"/>
<circle cx="475.908" cy="396.219" r="1.5" fill="#5E8EB0"/>
<circle cx="489.111" cy="396.219" r="1.5" fill="#5E8EB0"/>
<circle cx="502.315" cy="396.219" r="1.5" fill="#5E8EB0"/>
<circle cx="515.52" cy="396.219" r="1.5" fill="#5E8EB0"/>
<circle cx="528.724" cy="396.219" r="1.5" fill="#5E8EB0"/>
<circle cx="541.927" cy="396.219" r="1.5" fill="#5E8EB0"/>
<circle cx="555.131" cy="396.219" r="1.5" fill="#5E8EB0"/>
<circle cx="568.335" cy="396.219" r="1.5" fill="#5E8EB0"/>
<circle cx="581.539" cy="396.219" r="1.5" fill="#5E8EB0"/>
</svg>
