<svg width="1440" height="804" viewBox="0 0 1440 804" fill="none" xmlns="http://www.w3.org/2000/svg">
<mask id="mask0" mask-type="alpha" maskUnits="userSpaceOnUse" x="0" y="0" width="1440" height="800">
<path d="M0.5 0.5H1439.5V799.5H0.5V0.5Z" fill="#5E8EB0" stroke="black"/>
</mask>
<g mask="url(#mask0)">
<path d="M0 -4H1440V804H800C358.172 804 0 437.828 0 -4Z" fill="#5E8EB0"/>
<g filter="url(#filter0_d)">
<circle cx="1117.58" cy="564.58" r="2.58005" fill="#EAF0F5"/>
<circle cx="1140.29" cy="564.58" r="2.58005" fill="#EAF0F5"/>
<circle cx="1163" cy="564.58" r="2.58005" fill="#EAF0F5"/>
<circle cx="1185.71" cy="564.58" r="2.58005" fill="#EAF0F5"/>
<circle cx="1208.42" cy="564.58" r="2.58005" fill="#EAF0F5"/>
<circle cx="1231.14" cy="564.58" r="2.58005" fill="#EAF0F5"/>
<circle cx="1253.85" cy="564.58" r="2.58005" fill="#EAF0F5"/>
<circle cx="1276.56" cy="564.58" r="2.58005" fill="#EAF0F5"/>
<circle cx="1299.27" cy="564.58" r="2.58005" fill="#EAF0F5"/>
<circle cx="1321.98" cy="564.58" r="2.58005" fill="#EAF0F5"/>
<circle cx="1344.69" cy="564.58" r="2.58005" fill="#EAF0F5"/>
<circle cx="1117.58" cy="589.562" r="2.58005" fill="#EAF0F5"/>
<circle cx="1140.29" cy="589.562" r="2.58005" fill="#EAF0F5"/>
<circle cx="1163" cy="589.562" r="2.58005" fill="#EAF0F5"/>
<circle cx="1185.71" cy="589.562" r="2.58005" fill="#EAF0F5"/>
<circle cx="1208.42" cy="589.562" r="2.58005" fill="#EAF0F5"/>
<circle cx="1231.14" cy="589.562" r="2.58005" fill="#EAF0F5"/>
<circle cx="1253.85" cy="589.562" r="2.58005" fill="#EAF0F5"/>
<circle cx="1276.56" cy="589.562" r="2.58005" fill="#EAF0F5"/>
<circle cx="1299.27" cy="589.562" r="2.58005" fill="#EAF0F5"/>
<circle cx="1321.98" cy="589.562" r="2.58005" fill="#EAF0F5"/>
<circle cx="1344.69" cy="589.562" r="2.58005" fill="#EAF0F5"/>
<circle cx="1117.58" cy="614.544" r="2.58005" fill="#EAF0F5"/>
<circle cx="1140.29" cy="614.544" r="2.58005" fill="#EAF0F5"/>
<circle cx="1163" cy="614.544" r="2.58005" fill="#EAF0F5"/>
<circle cx="1185.71" cy="614.544" r="2.58005" fill="#EAF0F5"/>
<circle cx="1208.42" cy="614.544" r="2.58005" fill="#EAF0F5"/>
<circle cx="1231.14" cy="614.544" r="2.58005" fill="#EAF0F5"/>
<circle cx="1253.85" cy="614.544" r="2.58005" fill="#EAF0F5"/>
<circle cx="1276.56" cy="614.544" r="2.58005" fill="#EAF0F5"/>
<circle cx="1299.27" cy="614.544" r="2.58005" fill="#EAF0F5"/>
<circle cx="1321.98" cy="614.544" r="2.58005" fill="#EAF0F5"/>
<circle cx="1344.69" cy="614.544" r="2.58005" fill="#EAF0F5"/>
<circle cx="1117.58" cy="639.527" r="2.58005" fill="#EAF0F5"/>
<circle cx="1140.29" cy="639.527" r="2.58005" fill="#EAF0F5"/>
<circle cx="1163" cy="639.527" r="2.58005" fill="#EAF0F5"/>
<circle cx="1185.71" cy="639.527" r="2.58005" fill="#EAF0F5"/>
<circle cx="1208.42" cy="639.527" r="2.58005" fill="#EAF0F5"/>
<circle cx="1231.14" cy="639.527" r="2.58005" fill="#EAF0F5"/>
<circle cx="1253.85" cy="639.527" r="2.58005" fill="#EAF0F5"/>
<circle cx="1276.56" cy="639.527" r="2.58005" fill="#EAF0F5"/>
<circle cx="1299.27" cy="639.527" r="2.58005" fill="#EAF0F5"/>
<circle cx="1321.98" cy="639.527" r="2.58005" fill="#EAF0F5"/>
<circle cx="1344.69" cy="639.527" r="2.58005" fill="#EAF0F5"/>
<circle cx="1117.58" cy="664.509" r="2.58005" fill="#EAF0F5"/>
<circle cx="1140.29" cy="664.509" r="2.58005" fill="#EAF0F5"/>
<circle cx="1163" cy="664.509" r="2.58005" fill="#EAF0F5"/>
<circle cx="1185.71" cy="664.509" r="2.58005" fill="#EAF0F5"/>
<circle cx="1208.42" cy="664.509" r="2.58005" fill="#EAF0F5"/>
<circle cx="1231.14" cy="664.509" r="2.58005" fill="#EAF0F5"/>
<circle cx="1253.85" cy="664.509" r="2.58005" fill="#EAF0F5"/>
<circle cx="1276.56" cy="664.509" r="2.58005" fill="#EAF0F5"/>
<circle cx="1299.27" cy="664.509" r="2.58005" fill="#EAF0F5"/>
<circle cx="1321.98" cy="664.509" r="2.58005" fill="#EAF0F5"/>
<circle cx="1344.69" cy="664.509" r="2.58005" fill="#EAF0F5"/>
<circle cx="1117.58" cy="689.491" r="2.58005" fill="#EAF0F5"/>
<circle cx="1140.29" cy="689.491" r="2.58005" fill="#EAF0F5"/>
<circle cx="1163" cy="689.491" r="2.58005" fill="#EAF0F5"/>
<circle cx="1185.71" cy="689.491" r="2.58005" fill="#EAF0F5"/>
<circle cx="1208.42" cy="689.491" r="2.58005" fill="#EAF0F5"/>
<circle cx="1231.14" cy="689.491" r="2.58005" fill="#EAF0F5"/>
<circle cx="1253.85" cy="689.491" r="2.58005" fill="#EAF0F5"/>
<circle cx="1276.56" cy="689.491" r="2.58005" fill="#EAF0F5"/>
<circle cx="1299.27" cy="689.491" r="2.58005" fill="#EAF0F5"/>
<circle cx="1321.98" cy="689.491" r="2.58005" fill="#EAF0F5"/>
<circle cx="1344.69" cy="689.491" r="2.58005" fill="#EAF0F5"/>
<circle cx="1117.58" cy="714.473" r="2.58005" fill="#EAF0F5"/>
<circle cx="1140.29" cy="714.473" r="2.58005" fill="#EAF0F5"/>
<circle cx="1163" cy="714.473" r="2.58005" fill="#EAF0F5"/>
<circle cx="1185.71" cy="714.473" r="2.58005" fill="#EAF0F5"/>
<circle cx="1208.42" cy="714.473" r="2.58005" fill="#EAF0F5"/>
<circle cx="1231.14" cy="714.473" r="2.58005" fill="#EAF0F5"/>
<circle cx="1253.85" cy="714.473" r="2.58005" fill="#EAF0F5"/>
<circle cx="1276.56" cy="714.473" r="2.58005" fill="#EAF0F5"/>
<circle cx="1299.27" cy="714.473" r="2.58005" fill="#EAF0F5"/>
<circle cx="1321.98" cy="714.473" r="2.58005" fill="#EAF0F5"/>
<circle cx="1344.69" cy="714.473" r="2.58005" fill="#EAF0F5"/>
<circle cx="1117.58" cy="739.456" r="2.58005" fill="#EAF0F5"/>
<circle cx="1140.29" cy="739.456" r="2.58005" fill="#EAF0F5"/>
<circle cx="1163" cy="739.456" r="2.58005" fill="#EAF0F5"/>
<circle cx="1185.71" cy="739.456" r="2.58005" fill="#EAF0F5"/>
<circle cx="1208.42" cy="739.456" r="2.58005" fill="#EAF0F5"/>
<circle cx="1231.14" cy="739.456" r="2.58005" fill="#EAF0F5"/>
<circle cx="1253.85" cy="739.456" r="2.58005" fill="#EAF0F5"/>
<circle cx="1276.56" cy="739.456" r="2.58005" fill="#EAF0F5"/>
<circle cx="1299.27" cy="739.456" r="2.58005" fill="#EAF0F5"/>
<circle cx="1321.98" cy="739.456" r="2.58005" fill="#EAF0F5"/>
<circle cx="1344.69" cy="739.456" r="2.58005" fill="#EAF0F5"/>
<circle cx="1117.58" cy="764.438" r="2.58005" fill="#EAF0F5"/>
<circle cx="1140.29" cy="764.438" r="2.58005" fill="#EAF0F5"/>
<circle cx="1163" cy="764.438" r="2.58005" fill="#EAF0F5"/>
<circle cx="1185.71" cy="764.438" r="2.58005" fill="#EAF0F5"/>
<circle cx="1208.42" cy="764.438" r="2.58005" fill="#EAF0F5"/>
<circle cx="1231.14" cy="764.438" r="2.58005" fill="#EAF0F5"/>
<circle cx="1253.85" cy="764.438" r="2.58005" fill="#EAF0F5"/>
<circle cx="1276.56" cy="764.438" r="2.58005" fill="#EAF0F5"/>
<circle cx="1299.27" cy="764.438" r="2.58005" fill="#EAF0F5"/>
<circle cx="1321.98" cy="764.438" r="2.58005" fill="#EAF0F5"/>
<circle cx="1344.69" cy="764.438" r="2.58005" fill="#EAF0F5"/>
<circle cx="1117.58" cy="789.42" r="2.58005" fill="#EAF0F5"/>
<circle cx="1140.29" cy="789.42" r="2.58005" fill="#EAF0F5"/>
<circle cx="1163" cy="789.42" r="2.58005" fill="#EAF0F5"/>
<circle cx="1185.71" cy="789.42" r="2.58005" fill="#EAF0F5"/>
<circle cx="1208.42" cy="789.42" r="2.58005" fill="#EAF0F5"/>
<circle cx="1231.14" cy="789.42" r="2.58005" fill="#EAF0F5"/>
<circle cx="1253.85" cy="789.42" r="2.58005" fill="#EAF0F5"/>
<circle cx="1276.56" cy="789.42" r="2.58005" fill="#EAF0F5"/>
<circle cx="1299.27" cy="789.42" r="2.58005" fill="#EAF0F5"/>
<circle cx="1321.98" cy="789.42" r="2.58005" fill="#EAF0F5"/>
<circle cx="1344.69" cy="789.42" r="2.58005" fill="#EAF0F5"/>
</g>
<g filter="url(#filter1_d)">
<circle cx="162.58" cy="102.58" r="2.58005" fill="#EAF0F5"/>
<circle cx="185.292" cy="102.58" r="2.58005" fill="#EAF0F5"/>
<circle cx="208.002" cy="102.58" r="2.58005" fill="#EAF0F5"/>
<circle cx="230.714" cy="102.58" r="2.58005" fill="#EAF0F5"/>
<circle cx="253.424" cy="102.58" r="2.58005" fill="#EAF0F5"/>
<circle cx="276.136" cy="102.58" r="2.58005" fill="#EAF0F5"/>
<circle cx="298.847" cy="102.58" r="2.58005" fill="#EAF0F5"/>
<circle cx="321.558" cy="102.58" r="2.58005" fill="#EAF0F5"/>
<circle cx="344.269" cy="102.58" r="2.58005" fill="#EAF0F5"/>
<circle cx="366.98" cy="102.58" r="2.58005" fill="#EAF0F5"/>
<circle cx="389.691" cy="102.58" r="2.58005" fill="#EAF0F5"/>
<circle cx="162.58" cy="127.562" r="2.58005" fill="#EAF0F5"/>
<circle cx="185.292" cy="127.562" r="2.58005" fill="#EAF0F5"/>
<circle cx="208.002" cy="127.562" r="2.58005" fill="#EAF0F5"/>
<circle cx="230.714" cy="127.562" r="2.58005" fill="#EAF0F5"/>
<circle cx="253.424" cy="127.562" r="2.58005" fill="#EAF0F5"/>
<circle cx="276.136" cy="127.562" r="2.58005" fill="#EAF0F5"/>
<circle cx="298.847" cy="127.562" r="2.58005" fill="#EAF0F5"/>
<circle cx="321.558" cy="127.562" r="2.58005" fill="#EAF0F5"/>
<circle cx="344.269" cy="127.562" r="2.58005" fill="#EAF0F5"/>
<circle cx="366.98" cy="127.562" r="2.58005" fill="#EAF0F5"/>
<circle cx="389.691" cy="127.562" r="2.58005" fill="#EAF0F5"/>
<circle cx="162.58" cy="152.544" r="2.58005" fill="#EAF0F5"/>
<circle cx="185.292" cy="152.544" r="2.58005" fill="#EAF0F5"/>
<circle cx="208.002" cy="152.544" r="2.58005" fill="#EAF0F5"/>
<circle cx="230.714" cy="152.544" r="2.58005" fill="#EAF0F5"/>
<circle cx="253.424" cy="152.544" r="2.58005" fill="#EAF0F5"/>
<circle cx="276.136" cy="152.544" r="2.58005" fill="#EAF0F5"/>
<circle cx="298.847" cy="152.544" r="2.58005" fill="#EAF0F5"/>
<circle cx="321.558" cy="152.544" r="2.58005" fill="#EAF0F5"/>
<circle cx="344.269" cy="152.544" r="2.58005" fill="#EAF0F5"/>
<circle cx="366.98" cy="152.544" r="2.58005" fill="#EAF0F5"/>
<circle cx="389.691" cy="152.544" r="2.58005" fill="#EAF0F5"/>
<circle cx="162.58" cy="177.527" r="2.58005" fill="#EAF0F5"/>
<circle cx="185.292" cy="177.527" r="2.58005" fill="#EAF0F5"/>
<circle cx="208.002" cy="177.527" r="2.58005" fill="#EAF0F5"/>
<circle cx="230.714" cy="177.527" r="2.58005" fill="#EAF0F5"/>
<circle cx="253.424" cy="177.527" r="2.58005" fill="#EAF0F5"/>
<circle cx="276.136" cy="177.527" r="2.58005" fill="#EAF0F5"/>
<circle cx="298.847" cy="177.527" r="2.58005" fill="#EAF0F5"/>
<circle cx="321.558" cy="177.527" r="2.58005" fill="#EAF0F5"/>
<circle cx="344.269" cy="177.527" r="2.58005" fill="#EAF0F5"/>
<circle cx="366.98" cy="177.527" r="2.58005" fill="#EAF0F5"/>
<circle cx="389.691" cy="177.527" r="2.58005" fill="#EAF0F5"/>
<circle cx="162.58" cy="202.509" r="2.58005" fill="#EAF0F5"/>
<circle cx="185.292" cy="202.509" r="2.58005" fill="#EAF0F5"/>
<circle cx="208.002" cy="202.509" r="2.58005" fill="#EAF0F5"/>
<circle cx="230.714" cy="202.509" r="2.58005" fill="#EAF0F5"/>
<circle cx="253.424" cy="202.509" r="2.58005" fill="#EAF0F5"/>
<circle cx="276.136" cy="202.509" r="2.58005" fill="#EAF0F5"/>
<circle cx="298.847" cy="202.509" r="2.58005" fill="#EAF0F5"/>
<circle cx="321.558" cy="202.509" r="2.58005" fill="#EAF0F5"/>
<circle cx="344.269" cy="202.509" r="2.58005" fill="#EAF0F5"/>
<circle cx="366.98" cy="202.509" r="2.58005" fill="#EAF0F5"/>
<circle cx="389.691" cy="202.509" r="2.58005" fill="#EAF0F5"/>
<circle cx="162.58" cy="227.491" r="2.58005" fill="#EAF0F5"/>
<circle cx="185.292" cy="227.491" r="2.58005" fill="#EAF0F5"/>
<circle cx="208.002" cy="227.491" r="2.58005" fill="#EAF0F5"/>
<circle cx="230.714" cy="227.491" r="2.58005" fill="#EAF0F5"/>
<circle cx="253.424" cy="227.491" r="2.58005" fill="#EAF0F5"/>
<circle cx="276.136" cy="227.491" r="2.58005" fill="#EAF0F5"/>
<circle cx="298.847" cy="227.491" r="2.58005" fill="#EAF0F5"/>
<circle cx="321.558" cy="227.491" r="2.58005" fill="#EAF0F5"/>
<circle cx="344.269" cy="227.491" r="2.58005" fill="#EAF0F5"/>
<circle cx="366.98" cy="227.491" r="2.58005" fill="#EAF0F5"/>
<circle cx="389.691" cy="227.491" r="2.58005" fill="#EAF0F5"/>
<circle cx="162.58" cy="252.473" r="2.58005" fill="#EAF0F5"/>
<circle cx="185.292" cy="252.473" r="2.58005" fill="#EAF0F5"/>
<circle cx="208.002" cy="252.473" r="2.58005" fill="#EAF0F5"/>
<circle cx="230.714" cy="252.473" r="2.58005" fill="#EAF0F5"/>
<circle cx="253.424" cy="252.473" r="2.58005" fill="#EAF0F5"/>
<circle cx="276.136" cy="252.473" r="2.58005" fill="#EAF0F5"/>
<circle cx="298.847" cy="252.473" r="2.58005" fill="#EAF0F5"/>
<circle cx="321.558" cy="252.473" r="2.58005" fill="#EAF0F5"/>
<circle cx="344.269" cy="252.473" r="2.58005" fill="#EAF0F5"/>
<circle cx="366.98" cy="252.473" r="2.58005" fill="#EAF0F5"/>
<circle cx="389.691" cy="252.473" r="2.58005" fill="#EAF0F5"/>
<circle cx="162.58" cy="277.456" r="2.58005" fill="#EAF0F5"/>
<circle cx="185.292" cy="277.456" r="2.58005" fill="#EAF0F5"/>
<circle cx="208.002" cy="277.456" r="2.58005" fill="#EAF0F5"/>
<circle cx="230.714" cy="277.456" r="2.58005" fill="#EAF0F5"/>
<circle cx="253.424" cy="277.456" r="2.58005" fill="#EAF0F5"/>
<circle cx="276.136" cy="277.456" r="2.58005" fill="#EAF0F5"/>
<circle cx="298.847" cy="277.456" r="2.58005" fill="#EAF0F5"/>
<circle cx="321.558" cy="277.456" r="2.58005" fill="#EAF0F5"/>
<circle cx="344.269" cy="277.456" r="2.58005" fill="#EAF0F5"/>
<circle cx="366.98" cy="277.456" r="2.58005" fill="#EAF0F5"/>
<circle cx="389.691" cy="277.456" r="2.58005" fill="#EAF0F5"/>
<circle cx="162.58" cy="302.438" r="2.58005" fill="#EAF0F5"/>
<circle cx="185.292" cy="302.438" r="2.58005" fill="#EAF0F5"/>
<circle cx="208.002" cy="302.438" r="2.58005" fill="#EAF0F5"/>
<circle cx="230.714" cy="302.438" r="2.58005" fill="#EAF0F5"/>
<circle cx="253.424" cy="302.438" r="2.58005" fill="#EAF0F5"/>
<circle cx="276.136" cy="302.438" r="2.58005" fill="#EAF0F5"/>
<circle cx="298.847" cy="302.438" r="2.58005" fill="#EAF0F5"/>
<circle cx="321.558" cy="302.438" r="2.58005" fill="#EAF0F5"/>
<circle cx="344.269" cy="302.438" r="2.58005" fill="#EAF0F5"/>
<circle cx="366.98" cy="302.438" r="2.58005" fill="#EAF0F5"/>
<circle cx="389.691" cy="302.438" r="2.58005" fill="#EAF0F5"/>
<circle cx="162.58" cy="327.42" r="2.58005" fill="#EAF0F5"/>
<circle cx="185.292" cy="327.42" r="2.58005" fill="#EAF0F5"/>
<circle cx="208.002" cy="327.42" r="2.58005" fill="#EAF0F5"/>
<circle cx="230.714" cy="327.42" r="2.58005" fill="#EAF0F5"/>
<circle cx="253.424" cy="327.42" r="2.58005" fill="#EAF0F5"/>
<circle cx="276.136" cy="327.42" r="2.58005" fill="#EAF0F5"/>
<circle cx="298.847" cy="327.42" r="2.58005" fill="#EAF0F5"/>
<circle cx="321.558" cy="327.42" r="2.58005" fill="#EAF0F5"/>
<circle cx="344.269" cy="327.42" r="2.58005" fill="#EAF0F5"/>
<circle cx="366.98" cy="327.42" r="2.58005" fill="#EAF0F5"/>
<circle cx="389.691" cy="327.42" r="2.58005" fill="#EAF0F5"/>
</g>
</g>
<defs>
<filter id="filter0_d" x="1111" y="562" width="240.271" height="238" filterUnits="userSpaceOnUse" color-interpolation-filters="sRGB">
<feFlood flood-opacity="0" result="BackgroundImageFix"/>
<feColorMatrix in="SourceAlpha" type="matrix" values="0 0 0 0 0 0 0 0 0 0 0 0 0 0 0 0 0 0 127 0"/>
<feOffset dy="4"/>
<feGaussianBlur stdDeviation="2"/>
<feColorMatrix type="matrix" values="0 0 0 0 0 0 0 0 0 0 0 0 0 0 0 0 0 0 0.25 0"/>
<feBlend mode="normal" in2="BackgroundImageFix" result="effect1_dropShadow"/>
<feBlend mode="normal" in="SourceGraphic" in2="effect1_dropShadow" result="shape"/>
</filter>
<filter id="filter1_d" x="156" y="100" width="240.271" height="238" filterUnits="userSpaceOnUse" color-interpolation-filters="sRGB">
<feFlood flood-opacity="0" result="BackgroundImageFix"/>
<feColorMatrix in="SourceAlpha" type="matrix" values="0 0 0 0 0 0 0 0 0 0 0 0 0 0 0 0 0 0 127 0"/>
<feOffset dy="4"/>
<feGaussianBlur stdDeviation="2"/>
<feColorMatrix type="matrix" values="0 0 0 0 0 0 0 0 0 0 0 0 0 0 0 0 0 0 0.25 0"/>
<feBlend mode="normal" in2="BackgroundImageFix" result="effect1_dropShadow"/>
<feBlend mode="normal" in="SourceGraphic" in2="effect1_dropShadow" result="shape"/>
</filter>
</defs>
</svg>
