<svg width="233" height="230" viewBox="0 0 233 230" fill="none" xmlns="http://www.w3.org/2000/svg">
<circle cx="2.58005" cy="2.58005" r="2.58005" fill="#EAF0F5"/>
<circle cx="25.292" cy="2.58005" r="2.58005" fill="#EAF0F5"/>
<circle cx="48.0019" cy="2.58005" r="2.58005" fill="#EAF0F5"/>
<circle cx="70.7138" cy="2.58005" r="2.58005" fill="#EAF0F5"/>
<circle cx="93.4238" cy="2.58005" r="2.58005" fill="#EAF0F5"/>
<circle cx="116.136" cy="2.58005" r="2.58005" fill="#EAF0F5"/>
<circle cx="138.847" cy="2.58005" r="2.58005" fill="#EAF0F5"/>
<circle cx="161.558" cy="2.58005" r="2.58005" fill="#EAF0F5"/>
<circle cx="184.269" cy="2.58005" r="2.58005" fill="#EAF0F5"/>
<circle cx="206.98" cy="2.58005" r="2.58005" fill="#EAF0F5"/>
<circle cx="229.691" cy="2.58005" r="2.58005" fill="#EAF0F5"/>
<circle cx="2.58005" cy="27.5623" r="2.58005" fill="#EAF0F5"/>
<circle cx="25.292" cy="27.5623" r="2.58005" fill="#EAF0F5"/>
<circle cx="48.0019" cy="27.5623" r="2.58005" fill="#EAF0F5"/>
<circle cx="70.7138" cy="27.5623" r="2.58005" fill="#EAF0F5"/>
<circle cx="93.4238" cy="27.5623" r="2.58005" fill="#EAF0F5"/>
<circle cx="116.136" cy="27.5623" r="2.58005" fill="#EAF0F5"/>
<circle cx="138.847" cy="27.5623" r="2.58005" fill="#EAF0F5"/>
<circle cx="161.558" cy="27.5623" r="2.58005" fill="#EAF0F5"/>
<circle cx="184.269" cy="27.5623" r="2.58005" fill="#EAF0F5"/>
<circle cx="206.98" cy="27.5623" r="2.58005" fill="#EAF0F5"/>
<circle cx="229.691" cy="27.5623" r="2.58005" fill="#EAF0F5"/>
<circle cx="2.58005" cy="52.5445" r="2.58005" fill="#EAF0F5"/>
<circle cx="25.292" cy="52.5445" r="2.58005" fill="#EAF0F5"/>
<circle cx="48.0019" cy="52.5445" r="2.58005" fill="#EAF0F5"/>
<circle cx="70.7138" cy="52.5445" r="2.58005" fill="#EAF0F5"/>
<circle cx="93.4238" cy="52.5445" r="2.58005" fill="#EAF0F5"/>
<circle cx="116.136" cy="52.5445" r="2.58005" fill="#EAF0F5"/>
<circle cx="138.847" cy="52.5445" r="2.58005" fill="#EAF0F5"/>
<circle cx="161.558" cy="52.5445" r="2.58005" fill="#EAF0F5"/>
<circle cx="184.269" cy="52.5445" r="2.58005" fill="#EAF0F5"/>
<circle cx="206.98" cy="52.5445" r="2.58005" fill="#EAF0F5"/>
<circle cx="229.691" cy="52.5445" r="2.58005" fill="#EAF0F5"/>
<circle cx="2.58005" cy="77.5267" r="2.58005" fill="#EAF0F5"/>
<circle cx="25.292" cy="77.5267" r="2.58005" fill="#EAF0F5"/>
<circle cx="48.0019" cy="77.5267" r="2.58005" fill="#EAF0F5"/>
<circle cx="70.7138" cy="77.5267" r="2.58005" fill="#EAF0F5"/>
<circle cx="93.4238" cy="77.5267" r="2.58005" fill="#EAF0F5"/>
<circle cx="116.136" cy="77.5267" r="2.58005" fill="#EAF0F5"/>
<circle cx="138.847" cy="77.5267" r="2.58005" fill="#EAF0F5"/>
<circle cx="161.558" cy="77.5267" r="2.58005" fill="#EAF0F5"/>
<circle cx="184.269" cy="77.5267" r="2.58005" fill="#EAF0F5"/>
<circle cx="206.98" cy="77.5267" r="2.58005" fill="#EAF0F5"/>
<circle cx="229.691" cy="77.5267" r="2.58005" fill="#EAF0F5"/>
<circle cx="2.58005" cy="102.509" r="2.58005" fill="#EAF0F5"/>
<circle cx="25.292" cy="102.509" r="2.58005" fill="#EAF0F5"/>
<circle cx="48.0019" cy="102.509" r="2.58005" fill="#EAF0F5"/>
<circle cx="70.7138" cy="102.509" r="2.58005" fill="#EAF0F5"/>
<circle cx="93.4238" cy="102.509" r="2.58005" fill="#EAF0F5"/>
<circle cx="116.136" cy="102.509" r="2.58005" fill="#EAF0F5"/>
<circle cx="138.847" cy="102.509" r="2.58005" fill="#EAF0F5"/>
<circle cx="161.558" cy="102.509" r="2.58005" fill="#EAF0F5"/>
<circle cx="184.269" cy="102.509" r="2.58005" fill="#EAF0F5"/>
<circle cx="206.98" cy="102.509" r="2.58005" fill="#EAF0F5"/>
<circle cx="229.691" cy="102.509" r="2.58005" fill="#EAF0F5"/>
<circle cx="2.58005" cy="127.491" r="2.58005" fill="#EAF0F5"/>
<circle cx="25.292" cy="127.491" r="2.58005" fill="#EAF0F5"/>
<circle cx="48.0019" cy="127.491" r="2.58005" fill="#EAF0F5"/>
<circle cx="70.7138" cy="127.491" r="2.58005" fill="#EAF0F5"/>
<circle cx="93.4238" cy="127.491" r="2.58005" fill="#EAF0F5"/>
<circle cx="116.136" cy="127.491" r="2.58005" fill="#EAF0F5"/>
<circle cx="138.847" cy="127.491" r="2.58005" fill="#EAF0F5"/>
<circle cx="161.558" cy="127.491" r="2.58005" fill="#EAF0F5"/>
<circle cx="184.269" cy="127.491" r="2.58005" fill="#EAF0F5"/>
<circle cx="206.98" cy="127.491" r="2.58005" fill="#EAF0F5"/>
<circle cx="229.691" cy="127.491" r="2.58005" fill="#EAF0F5"/>
<circle cx="2.58005" cy="152.473" r="2.58005" fill="#EAF0F5"/>
<circle cx="25.292" cy="152.473" r="2.58005" fill="#EAF0F5"/>
<circle cx="48.0019" cy="152.473" r="2.58005" fill="#EAF0F5"/>
<circle cx="70.7138" cy="152.473" r="2.58005" fill="#EAF0F5"/>
<circle cx="93.4238" cy="152.473" r="2.58005" fill="#EAF0F5"/>
<circle cx="116.136" cy="152.473" r="2.58005" fill="#EAF0F5"/>
<circle cx="138.847" cy="152.473" r="2.58005" fill="#EAF0F5"/>
<circle cx="161.558" cy="152.473" r="2.58005" fill="#EAF0F5"/>
<circle cx="184.269" cy="152.473" r="2.58005" fill="#EAF0F5"/>
<circle cx="206.98" cy="152.473" r="2.58005" fill="#EAF0F5"/>
<circle cx="229.691" cy="152.473" r="2.58005" fill="#EAF0F5"/>
<circle cx="2.58005" cy="177.456" r="2.58005" fill="#EAF0F5"/>
<circle cx="25.292" cy="177.456" r="2.58005" fill="#EAF0F5"/>
<circle cx="48.0019" cy="177.456" r="2.58005" fill="#EAF0F5"/>
<circle cx="70.7138" cy="177.456" r="2.58005" fill="#EAF0F5"/>
<circle cx="93.4238" cy="177.456" r="2.58005" fill="#EAF0F5"/>
<circle cx="116.136" cy="177.456" r="2.58005" fill="#EAF0F5"/>
<circle cx="138.847" cy="177.456" r="2.58005" fill="#EAF0F5"/>
<circle cx="161.558" cy="177.456" r="2.58005" fill="#EAF0F5"/>
<circle cx="184.269" cy="177.456" r="2.58005" fill="#EAF0F5"/>
<circle cx="206.98" cy="177.456" r="2.58005" fill="#EAF0F5"/>
<circle cx="229.691" cy="177.456" r="2.58005" fill="#EAF0F5"/>
<circle cx="2.58005" cy="202.438" r="2.58005" fill="#EAF0F5"/>
<circle cx="25.292" cy="202.438" r="2.58005" fill="#EAF0F5"/>
<circle cx="48.0019" cy="202.438" r="2.58005" fill="#EAF0F5"/>
<circle cx="70.7138" cy="202.438" r="2.58005" fill="#EAF0F5"/>
<circle cx="93.4238" cy="202.438" r="2.58005" fill="#EAF0F5"/>
<circle cx="116.136" cy="202.438" r="2.58005" fill="#EAF0F5"/>
<circle cx="138.847" cy="202.438" r="2.58005" fill="#EAF0F5"/>
<circle cx="161.558" cy="202.438" r="2.58005" fill="#EAF0F5"/>
<circle cx="184.269" cy="202.438" r="2.58005" fill="#EAF0F5"/>
<circle cx="206.98" cy="202.438" r="2.58005" fill="#EAF0F5"/>
<circle cx="229.691" cy="202.438" r="2.58005" fill="#EAF0F5"/>
<circle cx="2.58005" cy="227.42" r="2.58005" fill="#EAF0F5"/>
<circle cx="25.292" cy="227.42" r="2.58005" fill="#EAF0F5"/>
<circle cx="48.0019" cy="227.42" r="2.58005" fill="#EAF0F5"/>
<circle cx="70.7138" cy="227.42" r="2.58005" fill="#EAF0F5"/>
<circle cx="93.4238" cy="227.42" r="2.58005" fill="#EAF0F5"/>
<circle cx="116.136" cy="227.42" r="2.58005" fill="#EAF0F5"/>
<circle cx="138.847" cy="227.42" r="2.58005" fill="#EAF0F5"/>
<circle cx="161.558" cy="227.42" r="2.58005" fill="#EAF0F5"/>
<circle cx="184.269" cy="227.42" r="2.58005" fill="#EAF0F5"/>
<circle cx="206.98" cy="227.42" r="2.58005" fill="#EAF0F5"/>
<circle cx="229.691" cy="227.42" r="2.58005" fill="#EAF0F5"/>
</svg>
