<svg width="241" height="238" viewBox="0 0 241 238" fill="none" xmlns="http://www.w3.org/2000/svg">
<g filter="url(#filter0_d)">
<circle cx="6.58005" cy="2.58005" r="2.58005" fill="#EAF0F5"/>
<circle cx="29.292" cy="2.58005" r="2.58005" fill="#EAF0F5"/>
<circle cx="52.0019" cy="2.58005" r="2.58005" fill="#EAF0F5"/>
<circle cx="74.7138" cy="2.58005" r="2.58005" fill="#EAF0F5"/>
<circle cx="97.4238" cy="2.58005" r="2.58005" fill="#EAF0F5"/>
<circle cx="120.136" cy="2.58005" r="2.58005" fill="#EAF0F5"/>
<circle cx="142.847" cy="2.58005" r="2.58005" fill="#EAF0F5"/>
<circle cx="165.558" cy="2.58005" r="2.58005" fill="#EAF0F5"/>
<circle cx="188.269" cy="2.58005" r="2.58005" fill="#EAF0F5"/>
<circle cx="210.98" cy="2.58005" r="2.58005" fill="#EAF0F5"/>
<circle cx="233.691" cy="2.58005" r="2.58005" fill="#EAF0F5"/>
<circle cx="6.58005" cy="27.5623" r="2.58005" fill="#EAF0F5"/>
<circle cx="29.292" cy="27.5623" r="2.58005" fill="#EAF0F5"/>
<circle cx="52.0019" cy="27.5623" r="2.58005" fill="#EAF0F5"/>
<circle cx="74.7138" cy="27.5623" r="2.58005" fill="#EAF0F5"/>
<circle cx="97.4238" cy="27.5623" r="2.58005" fill="#EAF0F5"/>
<circle cx="120.136" cy="27.5623" r="2.58005" fill="#EAF0F5"/>
<circle cx="142.847" cy="27.5623" r="2.58005" fill="#EAF0F5"/>
<circle cx="165.558" cy="27.5623" r="2.58005" fill="#EAF0F5"/>
<circle cx="188.269" cy="27.5623" r="2.58005" fill="#EAF0F5"/>
<circle cx="210.98" cy="27.5623" r="2.58005" fill="#EAF0F5"/>
<circle cx="233.691" cy="27.5623" r="2.58005" fill="#EAF0F5"/>
<circle cx="6.58005" cy="52.5445" r="2.58005" fill="#EAF0F5"/>
<circle cx="29.292" cy="52.5445" r="2.58005" fill="#EAF0F5"/>
<circle cx="52.0019" cy="52.5445" r="2.58005" fill="#EAF0F5"/>
<circle cx="74.7138" cy="52.5445" r="2.58005" fill="#EAF0F5"/>
<circle cx="97.4238" cy="52.5445" r="2.58005" fill="#EAF0F5"/>
<circle cx="120.136" cy="52.5445" r="2.58005" fill="#EAF0F5"/>
<circle cx="142.847" cy="52.5445" r="2.58005" fill="#EAF0F5"/>
<circle cx="165.558" cy="52.5445" r="2.58005" fill="#EAF0F5"/>
<circle cx="188.269" cy="52.5445" r="2.58005" fill="#EAF0F5"/>
<circle cx="210.98" cy="52.5445" r="2.58005" fill="#EAF0F5"/>
<circle cx="233.691" cy="52.5445" r="2.58005" fill="#EAF0F5"/>
<circle cx="6.58005" cy="77.5267" r="2.58005" fill="#EAF0F5"/>
<circle cx="29.292" cy="77.5267" r="2.58005" fill="#EAF0F5"/>
<circle cx="52.0019" cy="77.5267" r="2.58005" fill="#EAF0F5"/>
<circle cx="74.7138" cy="77.5267" r="2.58005" fill="#EAF0F5"/>
<circle cx="97.4238" cy="77.5267" r="2.58005" fill="#EAF0F5"/>
<circle cx="120.136" cy="77.5267" r="2.58005" fill="#EAF0F5"/>
<circle cx="142.847" cy="77.5267" r="2.58005" fill="#EAF0F5"/>
<circle cx="165.558" cy="77.5267" r="2.58005" fill="#EAF0F5"/>
<circle cx="188.269" cy="77.5267" r="2.58005" fill="#EAF0F5"/>
<circle cx="210.98" cy="77.5267" r="2.58005" fill="#EAF0F5"/>
<circle cx="233.691" cy="77.5267" r="2.58005" fill="#EAF0F5"/>
<circle cx="6.58005" cy="102.509" r="2.58005" fill="#EAF0F5"/>
<circle cx="29.292" cy="102.509" r="2.58005" fill="#EAF0F5"/>
<circle cx="52.0019" cy="102.509" r="2.58005" fill="#EAF0F5"/>
<circle cx="74.7138" cy="102.509" r="2.58005" fill="#EAF0F5"/>
<circle cx="97.4238" cy="102.509" r="2.58005" fill="#EAF0F5"/>
<circle cx="120.136" cy="102.509" r="2.58005" fill="#EAF0F5"/>
<circle cx="142.847" cy="102.509" r="2.58005" fill="#EAF0F5"/>
<circle cx="165.558" cy="102.509" r="2.58005" fill="#EAF0F5"/>
<circle cx="188.269" cy="102.509" r="2.58005" fill="#EAF0F5"/>
<circle cx="210.98" cy="102.509" r="2.58005" fill="#EAF0F5"/>
<circle cx="233.691" cy="102.509" r="2.58005" fill="#EAF0F5"/>
<circle cx="6.58005" cy="127.491" r="2.58005" fill="#EAF0F5"/>
<circle cx="29.292" cy="127.491" r="2.58005" fill="#EAF0F5"/>
<circle cx="52.0019" cy="127.491" r="2.58005" fill="#EAF0F5"/>
<circle cx="74.7138" cy="127.491" r="2.58005" fill="#EAF0F5"/>
<circle cx="97.4238" cy="127.491" r="2.58005" fill="#EAF0F5"/>
<circle cx="120.136" cy="127.491" r="2.58005" fill="#EAF0F5"/>
<circle cx="142.847" cy="127.491" r="2.58005" fill="#EAF0F5"/>
<circle cx="165.558" cy="127.491" r="2.58005" fill="#EAF0F5"/>
<circle cx="188.269" cy="127.491" r="2.58005" fill="#EAF0F5"/>
<circle cx="210.98" cy="127.491" r="2.58005" fill="#EAF0F5"/>
<circle cx="233.691" cy="127.491" r="2.58005" fill="#EAF0F5"/>
<circle cx="6.58005" cy="152.473" r="2.58005" fill="#EAF0F5"/>
<circle cx="29.292" cy="152.473" r="2.58005" fill="#EAF0F5"/>
<circle cx="52.0019" cy="152.473" r="2.58005" fill="#EAF0F5"/>
<circle cx="74.7138" cy="152.473" r="2.58005" fill="#EAF0F5"/>
<circle cx="97.4238" cy="152.473" r="2.58005" fill="#EAF0F5"/>
<circle cx="120.136" cy="152.473" r="2.58005" fill="#EAF0F5"/>
<circle cx="142.847" cy="152.473" r="2.58005" fill="#EAF0F5"/>
<circle cx="165.558" cy="152.473" r="2.58005" fill="#EAF0F5"/>
<circle cx="188.269" cy="152.473" r="2.58005" fill="#EAF0F5"/>
<circle cx="210.98" cy="152.473" r="2.58005" fill="#EAF0F5"/>
<circle cx="233.691" cy="152.473" r="2.58005" fill="#EAF0F5"/>
<circle cx="6.58005" cy="177.456" r="2.58005" fill="#EAF0F5"/>
<circle cx="29.292" cy="177.456" r="2.58005" fill="#EAF0F5"/>
<circle cx="52.0019" cy="177.456" r="2.58005" fill="#EAF0F5"/>
<circle cx="74.7138" cy="177.456" r="2.58005" fill="#EAF0F5"/>
<circle cx="97.4238" cy="177.456" r="2.58005" fill="#EAF0F5"/>
<circle cx="120.136" cy="177.456" r="2.58005" fill="#EAF0F5"/>
<circle cx="142.847" cy="177.456" r="2.58005" fill="#EAF0F5"/>
<circle cx="165.558" cy="177.456" r="2.58005" fill="#EAF0F5"/>
<circle cx="188.269" cy="177.456" r="2.58005" fill="#EAF0F5"/>
<circle cx="210.98" cy="177.456" r="2.58005" fill="#EAF0F5"/>
<circle cx="233.691" cy="177.456" r="2.58005" fill="#EAF0F5"/>
<circle cx="6.58005" cy="202.438" r="2.58005" fill="#EAF0F5"/>
<circle cx="29.292" cy="202.438" r="2.58005" fill="#EAF0F5"/>
<circle cx="52.0019" cy="202.438" r="2.58005" fill="#EAF0F5"/>
<circle cx="74.7138" cy="202.438" r="2.58005" fill="#EAF0F5"/>
<circle cx="97.4238" cy="202.438" r="2.58005" fill="#EAF0F5"/>
<circle cx="120.136" cy="202.438" r="2.58005" fill="#EAF0F5"/>
<circle cx="142.847" cy="202.438" r="2.58005" fill="#EAF0F5"/>
<circle cx="165.558" cy="202.438" r="2.58005" fill="#EAF0F5"/>
<circle cx="188.269" cy="202.438" r="2.58005" fill="#EAF0F5"/>
<circle cx="210.98" cy="202.438" r="2.58005" fill="#EAF0F5"/>
<circle cx="233.691" cy="202.438" r="2.58005" fill="#EAF0F5"/>
<circle cx="6.58005" cy="227.42" r="2.58005" fill="#EAF0F5"/>
<circle cx="29.292" cy="227.42" r="2.58005" fill="#EAF0F5"/>
<circle cx="52.0019" cy="227.42" r="2.58005" fill="#EAF0F5"/>
<circle cx="74.7138" cy="227.42" r="2.58005" fill="#EAF0F5"/>
<circle cx="97.4238" cy="227.42" r="2.58005" fill="#EAF0F5"/>
<circle cx="120.136" cy="227.42" r="2.58005" fill="#EAF0F5"/>
<circle cx="142.847" cy="227.42" r="2.58005" fill="#EAF0F5"/>
<circle cx="165.558" cy="227.42" r="2.58005" fill="#EAF0F5"/>
<circle cx="188.269" cy="227.42" r="2.58005" fill="#EAF0F5"/>
<circle cx="210.98" cy="227.42" r="2.58005" fill="#EAF0F5"/>
<circle cx="233.691" cy="227.42" r="2.58005" fill="#EAF0F5"/>
</g>
<defs>
<filter id="filter0_d" x="0" y="0" width="240.271" height="238" filterUnits="userSpaceOnUse" color-interpolation-filters="sRGB">
<feFlood flood-opacity="0" result="BackgroundImageFix"/>
<feColorMatrix in="SourceAlpha" type="matrix" values="0 0 0 0 0 0 0 0 0 0 0 0 0 0 0 0 0 0 127 0"/>
<feOffset dy="4"/>
<feGaussianBlur stdDeviation="2"/>
<feColorMatrix type="matrix" values="0 0 0 0 0 0 0 0 0 0 0 0 0 0 0 0 0 0 0.25 0"/>
<feBlend mode="normal" in2="BackgroundImageFix" result="effect1_dropShadow"/>
<feBlend mode="normal" in="SourceGraphic" in2="effect1_dropShadow" result="shape"/>
</filter>
</defs>
</svg>
