<svg width="303" height="303" viewBox="0 0 303 303" fill="none" xmlns="http://www.w3.org/2000/svg">
<path d="M0 263.931C0 285.51 17.4923 303 39.0692 303H263.93C285.51 303 303 285.508 303 263.931V39.0704C303 17.49 285.508 0 263.931 0H39.0704C17.49 0 0 17.4923 0 39.0692V263.93V263.931Z" fill="#563D7C"/>
<path d="M125.648 134.028V91.119H163.418C167.016 91.119 170.484 91.4184 173.824 92.0185C177.164 92.6174 180.119 93.6874 182.689 95.2296C185.257 96.7718 187.313 98.9129 188.856 101.653C190.397 104.394 191.168 107.906 191.168 112.187C191.168 119.896 188.856 125.463 184.23 128.889C179.606 132.315 173.696 134.028 166.501 134.028H125.648V134.028ZM85.3076 59.7715V243.229H174.21C182.432 243.229 190.44 242.201 198.234 240.145C206.028 238.089 212.965 234.921 219.047 230.639C225.127 226.356 229.966 220.831 233.563 214.066C237.162 207.299 238.959 199.291 238.959 190.041C238.959 178.564 236.176 168.758 230.609 160.622C225.042 152.485 216.605 146.789 205.299 143.534C213.522 139.595 219.732 134.541 223.929 128.375C228.125 122.208 230.223 114.501 230.223 105.25C230.223 96.6854 228.81 89.4915 225.984 83.6671C223.157 77.8438 219.174 73.1757 214.035 69.664C208.897 66.1522 202.731 63.6253 195.536 62.0842C188.342 60.542 180.376 59.7715 171.64 59.7715H85.3076V59.7715ZM125.648 211.881V161.52H169.584C178.32 161.52 185.344 163.532 190.655 167.559C195.964 171.584 198.62 178.307 198.62 187.729C198.62 192.526 197.806 196.465 196.178 199.548C194.551 202.631 192.367 205.073 189.626 206.871C186.886 208.67 183.716 209.954 180.119 210.726C176.521 211.495 172.754 211.881 168.814 211.881H125.648V211.881Z" fill="white"/>
</svg>
