<svg width="329" height="303" viewBox="0 0 329 303" fill="none" xmlns="http://www.w3.org/2000/svg">
<g clip-path="url(#clip0)">
<path d="M164.596 303.096L225.132 116.97H104.059L164.595 303.096H164.596Z" fill="#E24329"/>
<path d="M164.596 303.095L104.059 116.968H19.2207L164.596 303.095Z" fill="#FC6D26"/>
<path d="M19.2207 116.968L0.824957 173.532C0.00702566 176.046 0.00691283 178.755 0.824634 181.27C1.64236 183.784 3.23593 185.976 5.37698 187.53L164.596 303.096L19.2194 116.97L19.2207 116.968Z" fill="#FCA326"/>
<path d="M19.2207 116.97H104.059L67.6004 4.86597C65.7241 -0.902581 57.5556 -0.901297 55.6806 4.86597L19.2207 116.97Z" fill="#E24329"/>
<path d="M164.596 303.095L225.133 116.968H309.972L164.595 303.095H164.596Z" fill="#FC6D26"/>
<path d="M309.972 116.968L328.368 173.532C329.186 176.046 329.186 178.755 328.368 181.27C327.55 183.785 325.956 185.976 323.815 187.53L164.597 303.096L309.972 116.97V116.968Z" fill="#FCA326"/>
<path d="M309.972 116.97H225.132L261.592 4.86597C263.469 -0.902581 271.637 -0.901297 273.512 4.86597L309.972 116.97Z" fill="#E24329"/>
</g>
<defs>
<clipPath id="clip0">
<rect width="329" height="303" fill="white"/>
</clipPath>
</defs>
</svg>
