<svg width="340" height="303" viewBox="0 0 340 303" fill="none" xmlns="http://www.w3.org/2000/svg">
<path d="M279.548 98.108C275.929 96.8658 272.28 95.715 268.604 94.6567C269.222 92.1317 269.79 89.6373 270.295 87.1867C278.58 46.9448 273.163 14.5252 254.664 3.85106C236.927 -6.38184 207.919 4.28828 178.624 29.8001C175.736 32.3189 172.913 34.9103 170.157 37.5718C168.311 35.802 166.434 34.0665 164.524 32.3663C133.821 5.08831 103.045 -6.40842 84.5657 4.29626C66.8445 14.561 61.5971 45.0378 69.0559 83.1759C69.7979 86.9531 70.6358 90.7108 71.5687 94.4454C67.2124 95.684 63.0089 97.0023 58.986 98.4057C22.9885 110.964 0 130.645 0 151.059C0 172.142 24.6792 193.29 62.1722 206.113C65.2118 207.148 68.2767 208.108 71.3641 208.99C70.3614 213.012 69.4712 217.062 68.6946 221.134C61.5838 258.61 67.1367 288.367 84.8101 298.566C103.064 309.1 133.701 298.274 163.532 272.18C165.951 270.059 168.317 267.877 170.627 265.638C173.612 268.52 176.677 271.318 179.817 274.029C208.715 298.909 237.254 308.956 254.91 298.729C273.146 288.165 279.074 256.198 271.378 217.307C270.772 214.26 270.092 211.228 269.34 208.214C271.491 207.576 273.603 206.92 275.662 206.236C314.639 193.315 340 172.424 340 151.059C340 130.57 316.269 110.757 279.548 98.108V98.108ZM271.094 192.442C269.235 193.057 267.328 193.651 265.383 194.229C261.08 180.598 255.274 166.105 248.167 151.129C254.948 136.511 260.532 122.202 264.714 108.66C268.192 109.667 271.567 110.729 274.821 111.849C306.284 122.688 325.476 138.711 325.476 151.059C325.476 164.21 304.749 181.283 271.094 192.442V192.442ZM257.13 220.129C260.533 237.326 261.018 252.875 258.764 265.03C256.74 275.953 252.668 283.234 247.632 286.151C236.918 292.358 214.003 284.291 189.291 263.012C186.37 260.491 183.519 257.89 180.742 255.211C190.323 244.727 199.897 232.539 209.242 219.002C225.679 217.543 241.207 215.156 255.29 211.899C255.983 214.699 256.599 217.445 257.13 220.129V220.129ZM115.913 285.079C105.445 288.777 97.1072 288.884 92.067 285.976C81.3423 279.787 76.8838 255.894 82.9653 223.845C83.6882 220.058 84.516 216.291 85.4476 212.55C99.3743 215.633 114.79 217.85 131.265 219.187C140.674 232.433 150.524 244.607 160.452 255.268C158.342 257.311 156.183 259.301 153.975 261.238C140.783 272.776 127.564 280.962 115.913 285.079V285.079ZM66.8711 192.361C50.2921 186.69 36.6005 179.321 27.2159 171.28C18.7823 164.054 14.5257 156.879 14.5257 151.059C14.5257 138.67 32.9827 122.869 63.7673 112.13C67.5033 110.827 71.4133 109.598 75.4707 108.445C79.726 122.292 85.3068 136.771 92.0417 151.412C85.2191 166.27 79.5587 180.98 75.2622 194.991C72.444 194.183 69.6462 193.306 66.8711 192.361V192.361ZM83.3106 80.3838C76.921 47.709 81.1644 23.061 91.8438 16.8747C103.218 10.2858 128.37 19.6801 154.881 43.2344C156.609 44.7738 158.31 46.3445 159.982 47.9455C150.103 58.5598 140.343 70.644 131.018 83.8112C115.028 85.2943 99.7209 87.6757 85.6481 90.8665C84.7811 87.3929 84.0017 83.898 83.3106 80.3851V80.3838ZM229.971 116.622C226.648 110.876 223.2 105.204 219.632 99.607C230.48 100.98 240.874 102.802 250.634 105.029C247.705 114.427 244.052 124.252 239.753 134.326C236.611 128.36 233.349 122.457 229.971 116.622V116.622ZM170.163 58.3326C176.862 65.5953 183.572 73.7032 190.172 82.5008C176.784 81.8682 163.374 81.8655 149.986 82.4928C156.593 73.7763 163.359 65.679 170.163 58.3326ZM109.971 116.721C106.636 122.51 103.435 128.376 100.373 134.314C96.1443 124.276 92.5252 114.406 89.5701 104.875C99.2707 102.703 109.615 100.928 120.395 99.5804C116.787 105.211 113.311 110.926 109.971 116.72V116.721ZM120.704 203.571C109.568 202.327 99.0675 200.643 89.3695 198.53C92.3711 188.829 96.0699 178.748 100.39 168.496C103.465 174.438 106.678 180.308 110.029 186.099C113.474 192.053 117.041 197.884 120.704 203.571ZM170.564 244.808C163.679 237.376 156.813 229.154 150.107 220.311C156.618 220.566 163.254 220.697 170 220.697C176.93 220.697 183.781 220.541 190.524 220.241C183.903 229.243 177.218 237.477 170.564 244.808ZM239.89 167.972C244.435 178.338 248.265 188.365 251.306 197.9C241.449 200.151 230.806 201.964 219.591 203.31C223.184 197.61 226.664 191.838 230.029 185.999C233.449 180.064 236.737 174.054 239.89 167.972V167.972ZM217.447 178.738C212.297 187.69 206.857 196.472 201.137 205.071C190.774 205.805 180.389 206.17 170 206.165C159.419 206.165 149.127 205.835 139.217 205.192C133.347 196.613 127.803 187.816 122.598 178.818H122.599C117.418 169.867 112.579 160.723 108.092 151.405C112.568 142.085 117.392 132.937 122.555 123.98L122.554 123.981C127.715 115.022 133.214 106.262 139.04 97.7199C149.151 96.9544 159.52 96.5558 169.999 96.5558H170C180.527 96.5558 190.909 96.9584 201.017 97.7292C206.784 106.258 212.248 114.988 217.399 123.903C222.58 132.84 227.468 141.944 232.057 151.199C227.515 160.55 222.642 169.735 217.447 178.738V178.738ZM247.41 16.4415C258.794 23.0118 263.222 49.507 256.069 84.2524C255.612 86.4691 255.1 88.7269 254.542 91.0167C240.434 87.7581 225.117 85.3355 209.08 83.8298C199.738 70.5177 190.057 58.415 180.339 47.9376C182.886 45.481 185.494 43.0882 188.159 40.7612C213.261 18.904 236.721 10.2739 247.41 16.4415V16.4415ZM170 120.679C186.768 120.679 200.361 134.281 200.361 151.059C200.361 167.837 186.768 181.438 170 181.438C153.232 181.438 139.639 167.837 139.639 151.059C139.639 134.281 153.232 120.679 170 120.679V120.679Z" fill="#00D8FF"/>
</svg>
