<svg width="307" height="303" viewBox="0 0 307 303" fill="none" xmlns="http://www.w3.org/2000/svg">
<g clip-path="url(#clip0)">
<path d="M0 146.571V146.142C3.85356 96.4277 21.8368 59.142 53.0934 35.5706C83.9219 11.5706 117.319 -0.000860007 153.714 -0.000860007C191.821 -0.429431 227.36 12.4277 259.045 38.142C291.158 63.4277 307 101.142 307 149.999V152.999C307 202.285 291.158 239.142 259.045 264.428C226.932 290.142 191.393 302.999 153.286 302.999H151.573C114.322 302.571 80.0683 289.713 48.3835 263.999C16.6987 238.713 0.428173 199.713 0 146.571ZM144.294 79.2849V11.5706H134.018C131.877 14.142 130.165 17.142 128.452 19.7134C126.739 22.2849 125.027 24.8563 123.314 27.8563C121.601 30.4277 119.46 33.8563 118.176 36.4277C116.463 38.9991 115.179 41.5706 113.894 44.5706C111.325 48.8563 109.184 53.142 107.471 56.9991C105.331 60.8563 103.618 64.7134 102.333 68.142C104.902 69.8563 107.9 71.9991 111.325 73.2849C115.179 74.5706 119.032 75.8563 122.886 76.7134C127.167 77.5706 131.021 77.9991 134.446 78.4277C138.3 78.8563 141.725 79.2849 144.294 79.2849ZM162.278 11.5706V78.8563C164.418 78.8563 166.987 79.2848 169.556 78.8563C172.126 78.8563 175.123 78.4277 177.692 77.9991C182.402 77.142 187.968 75.8563 192.25 74.5706C196.96 72.8563 201.241 70.7134 204.238 68.142C199.1 55.7134 193.534 45.8563 187.968 36.4277C182.402 26.9991 175.979 18.8563 169.128 11.9991V11.5706H162.278ZM116.035 15.4277V14.9991C113.038 16.2849 110.04 18.4277 106.615 19.7134C103.618 20.9991 99.7643 22.7134 96.7671 24.4277C90.7727 27.4277 84.7782 30.8563 78.7838 34.7134C73.2176 38.5706 67.6513 42.8563 62.9414 47.142C64.6541 48.8563 66.795 50.5706 68.5077 51.8563C70.2204 53.142 72.3612 54.8563 74.5021 56.5706C76.2148 57.4277 78.3556 58.7134 80.4965 60.4277C82.6374 61.7134 85.2064 63.4277 87.7755 65.142C91.2008 57.4277 94.6262 49.2849 98.908 41.9991C103.19 34.2849 107.9 26.9991 112.609 20.5706C113.038 19.7134 113.466 18.8563 114.322 17.9991C114.75 17.5706 115.179 16.2849 116.035 15.4277ZM247.056 47.142V46.7134C236.351 38.5706 226.932 31.7134 217.512 27.4277C208.092 23.142 198.672 18.8563 190.109 15.4277C196.96 22.2849 202.954 30.8563 206.808 38.9991C211.089 47.5706 215.371 56.5706 218.796 65.142C220.509 64.2848 222.65 63.4277 225.219 61.7134C227.36 60.4277 230.357 59.142 232.926 57.8563C235.495 56.142 237.636 54.4277 240.205 52.7134C242.774 50.5706 245.343 48.8563 247.056 47.142ZM239.777 142.713H289.017C289.017 126.856 285.591 111.856 279.169 96.4277C273.174 81.4277 264.611 68.9991 253.907 58.2849V57.8563C251.766 61.2849 248.768 64.2849 245.771 66.4277C242.346 68.5706 239.349 70.2849 235.923 71.9991C233.782 73.2849 231.642 74.9991 229.501 75.8563C227.36 77.142 224.363 77.9991 222.222 79.2849C223.934 82.7134 225.647 86.5706 227.36 89.9991C228.644 93.8563 230.785 98.142 231.642 101.999C234.211 108.856 235.923 116.142 237.636 123.428C238.921 129.856 239.777 136.713 239.777 142.713ZM84.7782 79.2849V78.8563C81.3529 77.142 77.4993 75.8563 74.5021 74.142C71.5049 71.9991 68.5077 69.8563 65.9386 68.142C63.3696 66.8563 60.8006 65.142 58.6597 63.4277C56.5188 61.7134 54.8061 59.9991 53.0934 58.2849C41.9609 68.9991 33.8257 80.9991 28.6876 95.142C23.1213 109.285 19.2678 125.142 17.5551 142.285H70.2204C70.2204 130.285 71.9331 118.713 74.9303 107.142C77.4993 95.142 81.3529 86.142 84.7782 79.2849ZM144.294 142.285V92.9991C140.869 93.4277 136.587 93.4277 132.734 92.9991C128.452 92.5706 124.17 91.2849 120.317 89.9991C116.891 89.142 112.609 88.2849 109.184 86.9991C105.331 86.142 101.477 84.4277 98.4798 82.7134C95.9107 86.9991 93.7699 92.142 92.0572 97.7134C89.9163 102.856 88.6318 108.428 87.3473 113.571C86.4909 118.713 86.0628 124.285 85.6346 128.999C85.2064 133.713 84.7782 138.428 84.7782 142.285H144.294ZM162.278 93.8563V142.285H225.647C225.647 139.713 225.647 136.713 225.219 133.285C224.363 130.285 223.934 126.428 223.506 122.999C222.222 117.856 220.937 112.285 219.225 107.142C217.512 102.428 215.799 97.7134 213.658 93.8563C212.802 91.7134 211.946 89.142 211.089 87.4277C209.805 85.2848 208.52 83.9991 207.664 82.7134C202.954 86.142 196.531 88.2849 188.824 89.9991C181.545 91.7134 172.982 93.4277 165.275 93.8563H162.278ZM70.2204 156.428H17.5551C17.5551 163.713 18.8396 171.856 20.9805 181.713C23.1213 191.999 27.4031 201.428 32.113 211.713C34.2538 216.856 36.8229 221.999 39.3919 227.142C42.3891 231.856 45.8145 236.999 49.2399 241.713C51.8089 239.999 54.378 238.713 56.5188 237.428C59.0879 236.142 62.0851 234.428 64.6541 233.142C67.6513 231.856 70.6485 230.571 74.0739 228.856C77.0711 227.571 80.9247 225.856 84.7782 224.142C81.3529 213.428 77.4993 203.142 74.9303 191.571C71.9331 180.428 70.2204 169.285 70.2204 156.856V156.428ZM144.294 206.571V156.428H84.7782C84.7782 159.856 85.2064 164.999 86.0628 170.142C86.4909 175.285 87.7755 180.856 88.6318 186.428C90.3445 192.428 91.629 198.428 93.3417 203.571C95.0544 208.713 96.7671 212.999 98.4798 216.856C106.187 213.856 113.894 211.713 119.032 210.428C124.598 208.713 129.736 207.428 134.874 206.999H139.584C141.297 206.571 143.01 206.571 144.294 206.571ZM162.278 156.428V206.142C165.275 206.571 168.7 206.999 172.126 207.428C175.979 207.856 180.689 208.713 184.543 209.571L190.965 210.856C193.106 211.713 195.675 212.142 197.816 212.571C200.385 213.428 202.954 213.856 205.523 214.713C207.664 215.571 209.805 215.999 211.517 216.856C217.084 202.713 220.509 191.142 222.65 181.285C224.791 171.856 225.647 163.713 225.647 156.856V156.428H162.278ZM289.017 156.856V156.428H239.777V158.999C239.349 167.142 238.064 176.571 236.351 186.428C234.639 195.856 230.785 206.999 225.647 220.713C232.498 224.142 238.921 227.571 244.059 230.999C249.197 234.428 253.907 238.285 257.332 241.713C264.611 234.428 271.033 224.571 276.6 211.713C282.166 199.285 286.02 186.428 288.16 172.713C288.589 170.142 288.589 167.571 289.017 164.999V156.856ZM144.294 287.142V220.285C133.59 221.999 124.598 224.142 117.748 225.856C110.897 227.571 105.759 229.285 102.333 230.999C104.902 237.428 107.471 242.999 110.04 248.142C112.609 252.856 115.607 257.999 118.176 262.285C119.032 263.999 120.745 265.713 122.029 267.856C123.314 269.571 124.17 271.713 125.455 273.428C126.739 275.571 128.024 278.142 129.308 280.713C131.021 282.856 132.305 285.428 134.018 287.142H144.294ZM162.278 287.142H172.126C175.979 284.142 179.833 279.856 182.83 275.142C186.255 270.428 190.109 264.856 192.678 260.142C195.675 254.571 198.672 249.428 201.241 244.285C203.81 239.142 205.951 234.428 207.664 230.999C202.954 229.285 196.531 227.571 190.109 225.856C183.686 224.142 174.695 222.428 162.278 220.713V287.142ZM247.056 251.999V251.571C246.199 250.285 244.487 248.571 243.202 247.285C241.918 245.999 239.777 244.285 237.636 242.999C235.923 241.713 233.782 240.428 231.213 239.142C228.644 237.856 225.219 236.142 222.222 234.428C220.509 237.856 217.512 243.856 213.23 251.999C209.377 260.142 202.526 269.999 193.962 280.713C204.667 278.999 214.086 275.142 222.65 269.999C232.07 265.285 240.205 258.856 247.056 251.999ZM87.7755 238.285V237.856C84.7782 239.571 80.0683 241.713 75.3584 243.856C70.2204 245.999 64.6541 248.571 59.516 251.999C62.5133 254.571 65.5105 257.142 68.0795 258.856C70.6485 260.999 73.6457 262.713 76.2148 264.428C80.9247 267.428 86.4909 270.428 92.0572 272.999C97.6234 275.571 104.474 278.142 113.038 280.713C110.04 277.285 107.9 272.999 105.759 269.571C103.618 266.142 101.049 262.713 98.908 259.285C96.7671 255.856 95.0544 251.999 93.3417 248.571C91.2008 245.142 89.4881 241.713 87.7755 238.285Z" fill="#274676"/>
</g>
<defs>
<clipPath id="clip0">
<rect width="307" height="303" fill="white"/>
</clipPath>
</defs>
</svg>
